<?xml version="1.0" encoding="UTF-8" standalone="no"?><!DOCTYPE svg PUBLIC "-//W3C//DTD SVG 1.1//EN" "http://www.w3.org/Graphics/SVG/1.1/DTD/svg11.dtd"><svg width="100%" height="100%" viewBox="0 0 161 46" version="1.1" xmlns="http://www.w3.org/2000/svg" xmlns:xlink="http://www.w3.org/1999/xlink" xml:space="preserve" xmlns:serif="http://www.serif.com/" style="fill-rule:evenodd;clip-rule:evenodd;stroke-linejoin:round;stroke-miterlimit:1.41421;"><rect id="Artboard1" x="0" y="0" width="161" height="46" style="fill:none;"/><clipPath id="_clip1"><rect x="0" y="0" width="161" height="46"/></clipPath><g clip-path="url(#_clip1)"><path d="M48.656,30.78l-4.222,0c-0.636,-0.976 -1.209,-1.793 -1.72,-2.449c-0.511,-0.656 -1.164,-1.479 -1.961,-2.471l-0.39,0l0,3.35c0,0.181 0.032,0.333 0.097,0.459c0.065,0.125 0.196,0.23 0.391,0.315c0.09,0.04 0.224,0.08 0.402,0.12c0.178,0.04 0.354,0.07 0.529,0.09l0,0.586l-5.664,0l0,-0.586c0.136,-0.01 0.327,-0.025 0.575,-0.045c0.248,-0.02 0.422,-0.05 0.522,-0.09c0.18,-0.07 0.306,-0.168 0.376,-0.293c0.07,-0.125 0.105,-0.283 0.105,-0.473l0,-7.557c0,-0.175 -0.03,-0.323 -0.09,-0.443c-0.06,-0.121 -0.191,-0.228 -0.391,-0.323c-0.155,-0.071 -0.343,-0.128 -0.563,-0.173c-0.221,-0.045 -0.398,-0.075 -0.534,-0.09l0,-0.586l5.852,0l0,0.586c-0.155,0.015 -0.342,0.036 -0.559,0.064c-0.218,0.027 -0.405,0.066 -0.56,0.116c-0.195,0.065 -0.326,0.168 -0.391,0.308c-0.065,0.14 -0.097,0.295 -0.097,0.466l0,3.59l0.315,0c0.391,-0.355 0.846,-0.783 1.367,-1.284c0.521,-0.501 0.924,-0.912 1.21,-1.232c0.4,-0.446 0.695,-0.799 0.882,-1.059c0.188,-0.261 0.282,-0.486 0.282,-0.676c0,-0.085 -0.09,-0.151 -0.27,-0.196c-0.181,-0.045 -0.456,-0.077 -0.827,-0.097l0,-0.586l4.635,0l0,0.586c-0.56,0.06 -1.03,0.161 -1.411,0.304c-0.38,0.143 -0.758,0.382 -1.133,0.717c-0.534,0.48 -0.975,0.897 -1.323,1.249c-0.347,0.353 -0.793,0.804 -1.337,1.354c0.48,0.587 1.057,1.305 1.733,2.154c0.675,0.85 1.348,1.678 2.018,2.485c0.17,0.205 0.365,0.402 0.585,0.59c0.22,0.187 0.462,0.339 0.727,0.454c0.125,0.055 0.268,0.098 0.428,0.128c0.16,0.03 0.297,0.047 0.412,0.052l0,0.586Z" style="fill:#010303;fill-rule:nonzero;"/><path d="M57.205,30.623c-0.22,0.095 -0.48,0.182 -0.78,0.262c-0.3,0.081 -0.617,0.121 -0.952,0.121c-0.615,0 -1.067,-0.092 -1.357,-0.275c-0.29,-0.182 -0.487,-0.444 -0.592,-0.785l-0.045,0c-0.171,0.171 -0.335,0.316 -0.493,0.436c-0.158,0.12 -0.328,0.223 -0.508,0.308c-0.236,0.11 -0.463,0.193 -0.681,0.248c-0.218,0.055 -0.523,0.083 -0.914,0.083c-0.582,0 -1.079,-0.172 -1.49,-0.516c-0.411,-0.343 -0.617,-0.798 -0.617,-1.365c0,-0.326 0.045,-0.603 0.136,-0.831c0.09,-0.229 0.218,-0.431 0.383,-0.606c0.151,-0.161 0.325,-0.294 0.523,-0.399c0.198,-0.105 0.415,-0.203 0.651,-0.293c0.451,-0.166 0.993,-0.337 1.625,-0.516c0.632,-0.178 1.094,-0.337 1.385,-0.477l0,-0.721c0,-0.126 -0.01,-0.291 -0.03,-0.496c-0.02,-0.206 -0.063,-0.378 -0.128,-0.519c-0.07,-0.16 -0.181,-0.295 -0.331,-0.405c-0.15,-0.11 -0.348,-0.166 -0.593,-0.166c-0.221,0 -0.405,0.032 -0.553,0.094c-0.148,0.063 -0.267,0.127 -0.357,0.192c0.015,0.1 0.058,0.253 0.128,0.458c0.071,0.206 0.106,0.403 0.106,0.594c0,0.085 -0.023,0.191 -0.068,0.319c-0.045,0.128 -0.11,0.229 -0.196,0.304c-0.115,0.1 -0.245,0.178 -0.388,0.233c-0.143,0.055 -0.363,0.083 -0.659,0.083c-0.422,0 -0.741,-0.102 -0.957,-0.305c-0.216,-0.202 -0.324,-0.467 -0.324,-0.792c0,-0.281 0.112,-0.532 0.334,-0.755c0.223,-0.223 0.495,-0.407 0.816,-0.552c0.315,-0.15 0.678,-0.267 1.089,-0.35c0.41,-0.082 0.791,-0.123 1.142,-0.123c0.485,0 0.931,0.028 1.337,0.086c0.405,0.058 0.771,0.176 1.096,0.357c0.311,0.175 0.558,0.429 0.74,0.762c0.183,0.333 0.275,0.768 0.275,1.304c0,0.565 -0.012,1.237 -0.034,2.013c-0.023,0.776 -0.034,1.287 -0.034,1.532c0,0.226 0.034,0.403 0.101,0.534c0.068,0.13 0.172,0.227 0.312,0.293c0.085,0.04 0.219,0.063 0.402,0.071c0.183,0.007 0.349,0.011 0.5,0.011l0,0.549Zm-3.726,-3.914c-0.282,0.095 -0.561,0.204 -0.837,0.327c-0.277,0.123 -0.503,0.253 -0.679,0.388c-0.186,0.141 -0.331,0.32 -0.437,0.539c-0.105,0.218 -0.158,0.475 -0.158,0.771c0,0.392 0.089,0.676 0.267,0.851c0.179,0.176 0.399,0.264 0.66,0.264c0.276,0 0.504,-0.057 0.682,-0.17c0.179,-0.113 0.336,-0.252 0.471,-0.418l0.031,-2.552Z" style="fill:#010303;fill-rule:nonzero;"/><path d="M67.489,30.623l-3.704,0.217l-0.113,-0.105l0,-0.691l-0.052,-0.015c-0.245,0.266 -0.576,0.497 -0.994,0.695c-0.418,0.198 -0.839,0.297 -1.264,0.297c-1.011,0 -1.843,-0.376 -2.499,-1.127c-0.655,-0.751 -0.982,-1.723 -0.982,-2.915c0,-1.056 0.366,-1.963 1.099,-2.719c0.733,-0.756 1.619,-1.134 2.659,-1.134c0.41,0 0.796,0.046 1.156,0.139c0.36,0.092 0.647,0.201 0.862,0.326l0,-2.456c0,-0.185 -0.037,-0.359 -0.112,-0.522c-0.075,-0.163 -0.176,-0.289 -0.301,-0.38c-0.155,-0.11 -0.349,-0.189 -0.582,-0.236c-0.233,-0.048 -0.467,-0.082 -0.702,-0.102l0,-0.548l4.063,-0.195l0.113,0.12l0,9.848c0,0.19 0.032,0.351 0.094,0.481c0.062,0.13 0.163,0.233 0.302,0.308c0.105,0.055 0.258,0.095 0.46,0.12c0.201,0.025 0.367,0.04 0.497,0.045l0,0.549Zm-3.832,-1.338l0,-4.244c-0.035,-0.115 -0.083,-0.243 -0.146,-0.383c-0.062,-0.14 -0.148,-0.273 -0.258,-0.398c-0.1,-0.105 -0.234,-0.198 -0.401,-0.278c-0.168,-0.08 -0.356,-0.12 -0.566,-0.12c-0.5,0 -0.909,0.283 -1.229,0.849c-0.32,0.565 -0.48,1.364 -0.48,2.396c0,0.406 0.029,0.77 0.087,1.093c0.057,0.323 0.158,0.617 0.303,0.883c0.145,0.265 0.331,0.473 0.558,0.623c0.228,0.15 0.501,0.225 0.821,0.225c0.305,0 0.557,-0.058 0.757,-0.176c0.2,-0.118 0.385,-0.274 0.554,-0.47Z" style="fill:#010303;fill-rule:nonzero;"/><path d="M76.06,28.985c-0.176,0.285 -0.387,0.555 -0.635,0.807c-0.248,0.253 -0.53,0.47 -0.845,0.65c-0.336,0.191 -0.675,0.335 -1.018,0.432c-0.343,0.098 -0.737,0.147 -1.183,0.147c-0.741,0 -1.381,-0.105 -1.919,-0.316c-0.539,-0.21 -0.983,-0.493 -1.334,-0.849c-0.35,-0.355 -0.612,-0.775 -0.785,-1.258c-0.173,-0.483 -0.259,-1.008 -0.259,-1.574c0,-0.511 0.094,-1 0.282,-1.468c0.187,-0.469 0.454,-0.885 0.8,-1.251c0.34,-0.356 0.77,-0.644 1.288,-0.864c0.518,-0.22 1.098,-0.33 1.739,-0.33c0.701,0 1.277,0.085 1.728,0.255c0.451,0.17 0.824,0.406 1.119,0.706c0.286,0.286 0.493,0.622 0.624,1.01c0.13,0.389 0.195,0.795 0.195,1.221l0,0.488l-5.078,0c0,1.027 0.198,1.808 0.593,2.344c0.396,0.536 1.024,0.804 1.886,0.804c0.471,0 0.894,-0.129 1.269,-0.387c0.376,-0.258 0.696,-0.585 0.962,-0.98l0.571,0.413Zm-2.87,-2.855c0,-0.3 -0.015,-0.608 -0.045,-0.924c-0.03,-0.315 -0.083,-0.573 -0.158,-0.773c-0.085,-0.236 -0.201,-0.414 -0.349,-0.534c-0.148,-0.12 -0.334,-0.18 -0.56,-0.18c-0.385,0 -0.693,0.195 -0.924,0.586c-0.23,0.391 -0.355,1.009 -0.375,1.855l2.411,-0.03Z" style="fill:#010303;fill-rule:nonzero;"/><path d="M84.263,24.703c0,0.381 -0.118,0.715 -0.353,1.003c-0.236,0.288 -0.546,0.432 -0.932,0.432c-0.365,0 -0.674,-0.092 -0.927,-0.277c-0.253,-0.184 -0.38,-0.456 -0.38,-0.815c0,-0.175 0.013,-0.311 0.038,-0.408c0.025,-0.097 0.047,-0.188 0.067,-0.273c-0.23,0.01 -0.473,0.089 -0.728,0.238c-0.256,0.149 -0.481,0.348 -0.676,0.596l0,4.124c0,0.175 0.027,0.32 0.082,0.436c0.055,0.115 0.148,0.205 0.278,0.27c0.11,0.055 0.289,0.102 0.537,0.139c0.248,0.038 0.427,0.059 0.537,0.064l0,0.548l-5.025,0l0,-0.548c0.125,-0.01 0.252,-0.024 0.379,-0.041c0.128,-0.018 0.237,-0.042 0.327,-0.072c0.16,-0.055 0.27,-0.14 0.331,-0.255c0.06,-0.115 0.09,-0.266 0.09,-0.451l0,-4.372c0,-0.18 -0.043,-0.342 -0.128,-0.484c-0.085,-0.143 -0.188,-0.257 -0.308,-0.342c-0.09,-0.06 -0.204,-0.11 -0.342,-0.15c-0.137,-0.041 -0.289,-0.068 -0.454,-0.083l0,-0.548l3.583,-0.196l0.113,0.113l0,1.089l0.03,0c0.345,-0.4 0.712,-0.715 1.1,-0.943c0.388,-0.227 0.793,-0.341 1.213,-0.341c0.466,0 0.841,0.144 1.123,0.432c0.283,0.288 0.425,0.659 0.425,1.115Zm-1.315,-5.333c-0.4,0.641 -0.741,1.184 -1.021,1.63c-0.281,0.445 -0.534,0.801 -0.759,1.066c-0.13,0.151 -0.253,0.26 -0.368,0.327c-0.115,0.068 -0.326,0.102 -0.631,0.102c-0.301,0 -0.522,-0.041 -0.665,-0.121c-0.143,-0.08 -0.272,-0.192 -0.387,-0.338c-0.235,-0.295 -0.502,-0.683 -0.8,-1.164c-0.298,-0.481 -0.61,-0.982 -0.935,-1.502l0.383,-0.218l2.374,1.908l2.404,-1.908l0.405,0.218Z" style="fill:#010303;fill-rule:nonzero;"/><path d="M94.697,30.78l-4.515,0l0,-0.548c0.096,-0.01 0.211,-0.023 0.346,-0.038c0.135,-0.015 0.238,-0.04 0.308,-0.075c0.105,-0.055 0.18,-0.135 0.225,-0.24c0.045,-0.105 0.068,-0.261 0.068,-0.466l0,-3.516c0,-0.51 -0.094,-0.895 -0.283,-1.153c-0.188,-0.258 -0.465,-0.386 -0.832,-0.386c-0.201,0 -0.388,0.03 -0.561,0.09c-0.173,0.06 -0.343,0.147 -0.509,0.263c-0.145,0.1 -0.262,0.202 -0.35,0.308c-0.088,0.105 -0.162,0.197 -0.222,0.278l0,4.033c0,0.176 0.025,0.322 0.075,0.44c0.05,0.118 0.133,0.207 0.248,0.267c0.08,0.045 0.18,0.085 0.3,0.12c0.121,0.035 0.238,0.06 0.354,0.075l0,0.548l-4.568,0l0,-0.548c0.125,-0.01 0.252,-0.024 0.38,-0.041c0.127,-0.018 0.236,-0.042 0.326,-0.072c0.161,-0.055 0.271,-0.14 0.331,-0.255c0.06,-0.115 0.09,-0.266 0.09,-0.451l0,-4.372c0,-0.155 -0.04,-0.308 -0.12,-0.458c-0.08,-0.15 -0.185,-0.273 -0.316,-0.368c-0.09,-0.06 -0.204,-0.11 -0.341,-0.15c-0.138,-0.041 -0.29,-0.068 -0.455,-0.083l0,-0.548l3.583,-0.196l0.113,0.113l0,1.089l0.03,0c0.14,-0.125 0.311,-0.275 0.511,-0.451c0.2,-0.175 0.385,-0.318 0.556,-0.428c0.185,-0.12 0.428,-0.223 0.728,-0.308c0.301,-0.085 0.621,-0.127 0.962,-0.127c0.816,0 1.428,0.231 1.837,0.694c0.408,0.464 0.612,1.078 0.612,1.845l0,3.681c0,0.185 0.027,0.333 0.082,0.443c0.056,0.11 0.158,0.198 0.308,0.263c0.081,0.035 0.18,0.07 0.297,0.105c0.118,0.035 0.252,0.06 0.402,0.075l0,0.548Z" style="fill:#010303;fill-rule:nonzero;"/><path d="M100.143,30.78l-4.747,0l0,-0.548c0.13,-0.01 0.258,-0.023 0.383,-0.038c0.125,-0.015 0.233,-0.04 0.323,-0.075c0.16,-0.06 0.273,-0.146 0.338,-0.259c0.065,-0.113 0.098,-0.262 0.098,-0.447l0,-4.372c0,-0.175 -0.041,-0.329 -0.121,-0.462c-0.08,-0.133 -0.18,-0.239 -0.3,-0.319c-0.09,-0.06 -0.227,-0.118 -0.41,-0.173c-0.182,-0.055 -0.349,-0.09 -0.499,-0.105l0,-0.548l3.681,-0.196l0.112,0.113l0,5.964c0,0.176 0.038,0.325 0.113,0.447c0.075,0.123 0.183,0.215 0.323,0.275c0.1,0.045 0.211,0.085 0.331,0.12c0.12,0.035 0.245,0.06 0.375,0.075l0,0.548Zm-1.096,-10.246c0,0.381 -0.147,0.705 -0.44,0.973c-0.293,0.268 -0.64,0.402 -1.04,0.402c-0.406,0 -0.755,-0.134 -1.048,-0.402c-0.293,-0.268 -0.44,-0.592 -0.44,-0.973c0,-0.381 0.147,-0.706 0.44,-0.977c0.293,-0.27 0.642,-0.405 1.048,-0.405c0.405,0 0.753,0.135 1.044,0.405c0.29,0.271 0.436,0.596 0.436,0.977Z" style="fill:#010303;fill-rule:nonzero;"/><path d="M105.124,31.021c-0.696,0 -1.311,-0.102 -1.844,-0.305c-0.534,-0.202 -0.973,-0.479 -1.319,-0.83c-0.345,-0.355 -0.603,-0.776 -0.774,-1.262c-0.17,-0.485 -0.255,-1.014 -0.255,-1.585c0,-0.521 0.104,-1.016 0.312,-1.487c0.208,-0.471 0.489,-0.884 0.845,-1.24c0.366,-0.365 0.82,-0.657 1.363,-0.875c0.544,-0.218 1.143,-0.326 1.799,-0.326c0.922,0 1.651,0.174 2.186,0.522c0.536,0.348 0.804,0.817 0.804,1.408c0,0.361 -0.095,0.651 -0.285,0.872c-0.19,0.22 -0.519,0.33 -0.984,0.33c-0.376,0 -0.69,-0.09 -0.943,-0.27c-0.253,-0.181 -0.379,-0.416 -0.379,-0.707c0,-0.245 0.04,-0.488 0.12,-0.728c0.08,-0.241 0.128,-0.423 0.143,-0.549c-0.056,-0.09 -0.126,-0.159 -0.211,-0.206c-0.085,-0.048 -0.218,-0.072 -0.398,-0.072c-0.225,0 -0.431,0.053 -0.616,0.158c-0.185,0.105 -0.358,0.291 -0.518,0.556c-0.155,0.251 -0.279,0.586 -0.372,1.007c-0.093,0.42 -0.139,0.926 -0.139,1.517c0,0.892 0.209,1.61 0.627,2.156c0.418,0.546 0.918,0.819 1.499,0.819c0.556,0 0.998,-0.124 1.326,-0.372c0.328,-0.248 0.619,-0.6 0.875,-1.055l0.563,0.39c-0.155,0.306 -0.34,0.585 -0.556,0.838c-0.215,0.253 -0.473,0.477 -0.773,0.672c-0.316,0.206 -0.636,0.361 -0.962,0.466c-0.325,0.105 -0.704,0.158 -1.134,0.158Z" style="fill:#010303;fill-rule:nonzero;"/><path d="M114.596,30.435c-0.32,0.14 -0.663,0.266 -1.029,0.379c-0.365,0.113 -0.811,0.169 -1.337,0.169c-0.781,0 -1.361,-0.19 -1.739,-0.57c-0.378,-0.38 -0.567,-0.923 -0.567,-1.628l0,-4.608l-1.352,0l0,-0.819l1.382,0l0,-2.276l2.434,0l0,2.276l2.111,0l0,0.819l-2.096,0l0,4.111c0,0.586 0.082,1.001 0.245,1.246c0.163,0.245 0.456,0.367 0.878,0.367c0.136,0 0.324,-0.01 0.565,-0.03c0.242,-0.02 0.41,-0.042 0.505,-0.067l0,0.631Z" style="fill:#010303;fill-rule:nonzero;"/><path d="M123.686,23.877c-0.225,0.035 -0.444,0.12 -0.657,0.255c-0.213,0.135 -0.39,0.346 -0.53,0.631c-0.35,0.731 -0.695,1.469 -1.033,2.212c-0.338,0.744 -0.67,1.464 -0.995,2.16c-0.1,0.211 -0.214,0.481 -0.342,0.811c-0.128,0.331 -0.234,0.631 -0.319,0.902l-1.382,0c-0.576,-1.337 -1.068,-2.447 -1.477,-3.328c-0.408,-0.881 -0.84,-1.828 -1.295,-2.839c-0.106,-0.236 -0.27,-0.421 -0.492,-0.556c-0.223,-0.136 -0.45,-0.218 -0.68,-0.248l0,-0.549l4.627,0l0,0.549c-0.17,0.005 -0.37,0.042 -0.6,0.112c-0.231,0.071 -0.346,0.161 -0.346,0.271c0,0.03 0.01,0.075 0.03,0.135c0.02,0.06 0.045,0.128 0.075,0.203c0.161,0.38 0.403,0.928 0.727,1.644c0.324,0.716 0.667,1.469 1.028,2.26c0.25,-0.545 0.489,-1.08 0.717,-1.603c0.227,-0.523 0.508,-1.19 0.843,-2.001c0.045,-0.12 0.072,-0.217 0.079,-0.293c0.008,-0.075 0.011,-0.125 0.011,-0.15c0,-0.09 -0.044,-0.169 -0.131,-0.236c-0.088,-0.068 -0.192,-0.127 -0.313,-0.177c-0.125,-0.05 -0.246,-0.088 -0.361,-0.113c-0.116,-0.025 -0.211,-0.042 -0.286,-0.052l0,-0.549l3.102,0l0,0.549Z" style="fill:#010303;fill-rule:nonzero;"/><path d="M128.591,30.78l-4.747,0l0,-0.548c0.13,-0.01 0.258,-0.023 0.383,-0.038c0.125,-0.015 0.233,-0.04 0.323,-0.075c0.16,-0.06 0.273,-0.146 0.338,-0.259c0.065,-0.113 0.098,-0.262 0.098,-0.447l0,-4.372c0,-0.175 -0.04,-0.329 -0.121,-0.462c-0.08,-0.133 -0.18,-0.239 -0.3,-0.319c-0.09,-0.06 -0.227,-0.118 -0.41,-0.173c-0.182,-0.055 -0.349,-0.09 -0.499,-0.105l0,-0.548l3.681,-0.196l0.113,0.113l0,5.964c0,0.176 0.037,0.325 0.112,0.447c0.075,0.123 0.183,0.215 0.323,0.275c0.1,0.045 0.211,0.085 0.331,0.12c0.12,0.035 0.245,0.06 0.375,0.075l0,0.548Zm-0.42,-10.967c0,0.225 -0.052,0.407 -0.154,0.544c-0.103,0.138 -0.267,0.28 -0.492,0.425c-0.246,0.16 -0.634,0.387 -1.165,0.68c-0.531,0.293 -1.132,0.642 -1.803,1.048l-0.315,-0.286c0.441,-0.586 0.781,-1.053 1.022,-1.401c0.24,-0.348 0.448,-0.645 0.623,-0.89c0.215,-0.306 0.421,-0.512 0.616,-0.62c0.195,-0.107 0.438,-0.161 0.729,-0.161c0.24,0 0.457,0.065 0.649,0.195c0.193,0.13 0.29,0.285 0.29,0.466Z" style="fill:#010303;fill-rule:nonzero;"/><path d="M18.736,46.165l-5.777,0l0,-0.586c0.17,-0.015 0.379,-0.04 0.627,-0.075c0.248,-0.035 0.417,-0.073 0.507,-0.113c0.186,-0.075 0.318,-0.178 0.399,-0.308c0.08,-0.13 0.12,-0.295 0.12,-0.496l0,-7.962l-3.666,9.367l-0.947,0c-0.045,-0.165 -0.156,-0.493 -0.334,-0.984c-0.178,-0.491 -0.322,-0.884 -0.432,-1.179l-2.697,-7.325l0,6.483c0,0.621 0.042,1.093 0.124,1.416c0.083,0.323 0.217,0.56 0.402,0.71c0.125,0.105 0.349,0.206 0.673,0.301c0.323,0.095 0.549,0.15 0.679,0.165l0,0.586l-4.582,0l0,-0.586c0.125,-0.015 0.329,-0.049 0.612,-0.101c0.283,-0.053 0.515,-0.144 0.695,-0.275c0.2,-0.14 0.336,-0.376 0.406,-0.709c0.07,-0.334 0.105,-0.808 0.105,-1.424l0,-5.281c0,-0.32 -0.04,-0.587 -0.12,-0.8c-0.08,-0.213 -0.201,-0.382 -0.361,-0.507c-0.2,-0.155 -0.405,-0.255 -0.616,-0.301c-0.21,-0.045 -0.423,-0.075 -0.638,-0.09l0,-0.586l4.911,0l2.628,7.024l2.215,-5.7c0.075,-0.211 0.147,-0.461 0.217,-0.752c0.07,-0.291 0.108,-0.481 0.113,-0.572l4.722,0l0,0.586c-0.16,0.01 -0.328,0.03 -0.503,0.06c-0.176,0.03 -0.344,0.071 -0.504,0.121c-0.195,0.065 -0.324,0.167 -0.387,0.308c-0.062,0.14 -0.094,0.295 -0.094,0.465l0,7.55c0,0.18 0.032,0.332 0.094,0.454c0.063,0.123 0.192,0.23 0.387,0.32c0.1,0.045 0.264,0.087 0.492,0.127c0.228,0.04 0.405,0.068 0.53,0.083l0,0.586Z" style="fill:#010303;fill-rule:nonzero;"/><path d="M28.336,46.007c-0.22,0.095 -0.48,0.183 -0.78,0.263c-0.3,0.08 -0.617,0.12 -0.952,0.12c-0.615,0 -1.067,-0.091 -1.357,-0.274c-0.29,-0.183 -0.487,-0.444 -0.592,-0.785l-0.045,0c-0.171,0.17 -0.335,0.316 -0.493,0.436c-0.158,0.12 -0.327,0.223 -0.508,0.308c-0.236,0.11 -0.462,0.193 -0.681,0.248c-0.218,0.055 -0.523,0.082 -0.914,0.082c-0.582,0 -1.078,-0.171 -1.49,-0.515c-0.411,-0.344 -0.616,-0.799 -0.616,-1.366c0,-0.325 0.045,-0.603 0.135,-0.831c0.09,-0.228 0.218,-0.43 0.384,-0.605c0.15,-0.161 0.324,-0.294 0.522,-0.399c0.199,-0.106 0.416,-0.203 0.651,-0.294c0.452,-0.165 0.993,-0.337 1.625,-0.515c0.633,-0.178 1.094,-0.337 1.385,-0.478l0,-0.721c0,-0.125 -0.01,-0.29 -0.03,-0.496c-0.02,-0.205 -0.063,-0.378 -0.128,-0.518c-0.07,-0.16 -0.18,-0.295 -0.331,-0.406c-0.15,-0.11 -0.348,-0.165 -0.593,-0.165c-0.221,0 -0.405,0.031 -0.553,0.094c-0.147,0.063 -0.266,0.126 -0.356,0.192c0.015,0.1 0.057,0.252 0.128,0.458c0.07,0.205 0.105,0.403 0.105,0.593c0,0.085 -0.022,0.192 -0.068,0.32c-0.045,0.127 -0.11,0.229 -0.196,0.304c-0.115,0.1 -0.244,0.178 -0.388,0.233c-0.143,0.055 -0.362,0.082 -0.659,0.082c-0.422,0 -0.741,-0.101 -0.957,-0.304c-0.215,-0.203 -0.323,-0.467 -0.323,-0.792c0,-0.281 0.111,-0.533 0.334,-0.755c0.223,-0.223 0.494,-0.407 0.815,-0.553c0.315,-0.15 0.678,-0.266 1.089,-0.349c0.411,-0.083 0.791,-0.124 1.142,-0.124c0.486,0 0.931,0.029 1.337,0.087c0.406,0.057 0.771,0.176 1.097,0.356c0.31,0.176 0.557,0.43 0.74,0.763c0.182,0.333 0.274,0.767 0.274,1.303c0,0.566 -0.011,1.237 -0.034,2.013c-0.022,0.777 -0.034,1.287 -0.034,1.533c0,0.225 0.034,0.403 0.102,0.533c0.067,0.13 0.171,0.228 0.311,0.293c0.086,0.04 0.22,0.064 0.402,0.072c0.183,0.007 0.35,0.011 0.5,0.011l0,0.548Zm-3.726,-3.914c-0.282,0.096 -0.56,0.205 -0.837,0.328c-0.276,0.123 -0.502,0.252 -0.678,0.388c-0.186,0.14 -0.332,0.32 -0.438,0.538c-0.105,0.219 -0.158,0.476 -0.158,0.772c0,0.392 0.089,0.675 0.268,0.851c0.178,0.176 0.398,0.263 0.659,0.263c0.277,0 0.504,-0.056 0.683,-0.169c0.178,-0.113 0.335,-0.252 0.471,-0.418l0.03,-2.553Z" style="fill:#010303;fill-rule:nonzero;"/><path d="M36.396,40.088c0,0.38 -0.117,0.715 -0.353,1.003c-0.235,0.288 -0.546,0.431 -0.931,0.431c-0.366,0 -0.675,-0.092 -0.928,-0.276c-0.253,-0.185 -0.379,-0.457 -0.379,-0.816c0,-0.174 0.012,-0.31 0.037,-0.407c0.025,-0.098 0.048,-0.189 0.068,-0.273c-0.231,0.01 -0.473,0.089 -0.729,0.238c-0.255,0.149 -0.481,0.347 -0.676,0.595l0,4.125c0,0.175 0.028,0.32 0.083,0.435c0.055,0.115 0.147,0.206 0.278,0.271c0.11,0.055 0.289,0.101 0.537,0.139c0.248,0.037 0.427,0.059 0.537,0.064l0,0.548l-5.026,0l0,-0.548c0.126,-0.01 0.252,-0.024 0.38,-0.042c0.127,-0.017 0.236,-0.041 0.326,-0.071c0.161,-0.055 0.271,-0.14 0.331,-0.256c0.06,-0.115 0.09,-0.265 0.09,-0.45l0,-4.372c0,-0.181 -0.042,-0.342 -0.128,-0.485c-0.085,-0.143 -0.187,-0.256 -0.308,-0.342c-0.09,-0.06 -0.204,-0.11 -0.341,-0.15c-0.138,-0.04 -0.29,-0.067 -0.455,-0.082l0,-0.549l3.583,-0.195l0.113,0.113l0,1.089l0.03,0c0.346,-0.401 0.712,-0.715 1.101,-0.943c0.388,-0.228 0.792,-0.342 1.213,-0.342c0.466,0 0.84,0.144 1.123,0.432c0.283,0.288 0.424,0.66 0.424,1.116Z" style="fill:#010303;fill-rule:nonzero;"/><path d="M41.204,46.405c-0.696,0 -1.311,-0.101 -1.844,-0.304c-0.534,-0.203 -0.973,-0.479 -1.319,-0.83c-0.345,-0.356 -0.603,-0.776 -0.773,-1.262c-0.171,-0.486 -0.256,-1.014 -0.256,-1.585c0,-0.521 0.104,-1.017 0.312,-1.487c0.208,-0.471 0.49,-0.884 0.845,-1.24c0.366,-0.366 0.82,-0.657 1.364,-0.875c0.543,-0.218 1.143,-0.327 1.799,-0.327c0.921,0 1.65,0.174 2.186,0.522c0.536,0.348 0.803,0.818 0.803,1.409c0,0.36 -0.095,0.651 -0.285,0.871c-0.19,0.22 -0.518,0.331 -0.984,0.331c-0.376,0 -0.69,-0.09 -0.943,-0.271c-0.253,-0.18 -0.379,-0.415 -0.379,-0.706c0,-0.245 0.04,-0.488 0.12,-0.729c0.08,-0.24 0.128,-0.423 0.143,-0.548c-0.055,-0.09 -0.125,-0.159 -0.211,-0.207c-0.085,-0.047 -0.217,-0.071 -0.398,-0.071c-0.225,0 -0.43,0.053 -0.616,0.158c-0.185,0.105 -0.358,0.29 -0.518,0.556c-0.155,0.25 -0.279,0.586 -0.372,1.006c-0.093,0.421 -0.139,0.927 -0.139,1.518c0,0.891 0.209,1.61 0.627,2.156c0.419,0.546 0.918,0.819 1.499,0.819c0.556,0 0.998,-0.124 1.326,-0.372c0.328,-0.248 0.62,-0.6 0.875,-1.056l0.563,0.391c-0.155,0.305 -0.34,0.585 -0.555,0.837c-0.216,0.253 -0.474,0.478 -0.774,0.673c-0.316,0.205 -0.636,0.36 -0.962,0.466c-0.325,0.105 -0.703,0.157 -1.134,0.157Z" style="fill:#010303;fill-rule:nonzero;"/><path d="M53.163,44.37c-0.175,0.285 -0.387,0.554 -0.635,0.807c-0.248,0.253 -0.529,0.47 -0.845,0.65c-0.335,0.19 -0.675,0.334 -1.018,0.432c-0.343,0.097 -0.737,0.146 -1.183,0.146c-0.741,0 -1.381,-0.105 -1.919,-0.315c-0.538,-0.211 -0.983,-0.493 -1.333,-0.849c-0.351,-0.356 -0.613,-0.775 -0.785,-1.258c-0.173,-0.484 -0.26,-1.008 -0.26,-1.574c0,-0.511 0.094,-1 0.282,-1.469c0.188,-0.468 0.455,-0.885 0.8,-1.25c0.341,-0.356 0.77,-0.644 1.288,-0.864c0.519,-0.221 1.098,-0.331 1.739,-0.331c0.702,0 1.277,0.085 1.728,0.256c0.451,0.17 0.824,0.405 1.119,0.706c0.286,0.285 0.494,0.622 0.624,1.01c0.13,0.388 0.195,0.795 0.195,1.221l0,0.488l-5.078,0c0,1.027 0.198,1.808 0.594,2.344c0.395,0.536 1.024,0.804 1.885,0.804c0.471,0 0.894,-0.129 1.27,-0.387c0.375,-0.258 0.696,-0.585 0.961,-0.981l0.571,0.414Zm-2.869,-2.855c0,-0.3 -0.015,-0.608 -0.046,-0.924c-0.03,-0.315 -0.082,-0.573 -0.157,-0.774c-0.085,-0.235 -0.202,-0.413 -0.35,-0.533c-0.147,-0.12 -0.334,-0.18 -0.559,-0.18c-0.386,0 -0.694,0.195 -0.924,0.586c-0.231,0.39 -0.356,1.009 -0.376,1.855l2.412,-0.03Z" style="fill:#010303;fill-rule:nonzero;"/><path d="M58.474,46.165l-4.732,0l0,-0.548c0.131,-0.01 0.258,-0.023 0.381,-0.038c0.124,-0.015 0.234,-0.04 0.329,-0.075c0.162,-0.06 0.271,-0.147 0.329,-0.259c0.058,-0.113 0.087,-0.262 0.087,-0.447l0,-8.324c0,-0.19 -0.038,-0.366 -0.116,-0.529c-0.078,-0.163 -0.182,-0.287 -0.312,-0.372c-0.1,-0.065 -0.251,-0.128 -0.454,-0.188c-0.203,-0.06 -0.382,-0.095 -0.537,-0.105l0,-0.548l3.785,-0.196l0.113,0.121l0,10.043c0,0.185 0.033,0.336 0.099,0.451c0.065,0.115 0.171,0.205 0.317,0.27c0.101,0.045 0.207,0.085 0.318,0.12c0.111,0.035 0.242,0.061 0.393,0.076l0,0.548Z" style="fill:#010303;fill-rule:nonzero;"/><path d="M67.766,46.007c-0.219,0.095 -0.479,0.183 -0.779,0.263c-0.3,0.08 -0.617,0.12 -0.952,0.12c-0.615,0 -1.067,-0.091 -1.357,-0.274c-0.29,-0.183 -0.488,-0.444 -0.593,-0.785l-0.044,0c-0.171,0.17 -0.335,0.316 -0.493,0.436c-0.158,0.12 -0.328,0.223 -0.508,0.308c-0.236,0.11 -0.463,0.193 -0.681,0.248c-0.218,0.055 -0.523,0.082 -0.914,0.082c-0.582,0 -1.079,-0.171 -1.49,-0.515c-0.411,-0.344 -0.617,-0.799 -0.617,-1.366c0,-0.325 0.045,-0.603 0.135,-0.831c0.091,-0.228 0.219,-0.43 0.384,-0.605c0.151,-0.161 0.325,-0.294 0.523,-0.399c0.198,-0.106 0.415,-0.203 0.651,-0.294c0.451,-0.165 0.993,-0.337 1.625,-0.515c0.632,-0.178 1.094,-0.337 1.385,-0.478l0,-0.721c0,-0.125 -0.01,-0.29 -0.031,-0.496c-0.02,-0.205 -0.062,-0.378 -0.127,-0.518c-0.07,-0.16 -0.181,-0.295 -0.331,-0.406c-0.15,-0.11 -0.348,-0.165 -0.594,-0.165c-0.22,0 -0.404,0.031 -0.552,0.094c-0.148,0.063 -0.267,0.126 -0.357,0.192c0.015,0.1 0.058,0.252 0.128,0.458c0.071,0.205 0.106,0.403 0.106,0.593c0,0.085 -0.023,0.192 -0.068,0.32c-0.045,0.127 -0.111,0.229 -0.196,0.304c-0.116,0.1 -0.245,0.178 -0.388,0.233c-0.143,0.055 -0.363,0.082 -0.659,0.082c-0.422,0 -0.741,-0.101 -0.957,-0.304c-0.216,-0.203 -0.324,-0.467 -0.324,-0.792c0,-0.281 0.111,-0.533 0.334,-0.755c0.223,-0.223 0.495,-0.407 0.815,-0.553c0.316,-0.15 0.679,-0.266 1.09,-0.349c0.41,-0.083 0.791,-0.124 1.141,-0.124c0.486,0 0.932,0.029 1.338,0.087c0.405,0.057 0.771,0.176 1.096,0.356c0.311,0.176 0.558,0.43 0.74,0.763c0.183,0.333 0.274,0.767 0.274,1.303c0,0.566 -0.011,1.237 -0.033,2.013c-0.023,0.777 -0.034,1.287 -0.034,1.533c0,0.225 0.034,0.403 0.101,0.533c0.068,0.13 0.172,0.228 0.312,0.293c0.085,0.04 0.219,0.064 0.402,0.072c0.183,0.007 0.349,0.011 0.499,0.011l0,0.548Zm-3.725,-3.914c-0.282,0.096 -0.561,0.205 -0.837,0.328c-0.277,0.123 -0.503,0.252 -0.679,0.388c-0.186,0.14 -0.331,0.32 -0.437,0.538c-0.106,0.219 -0.158,0.476 -0.158,0.772c0,0.392 0.089,0.675 0.267,0.851c0.179,0.176 0.399,0.263 0.66,0.263c0.276,0 0.504,-0.056 0.682,-0.169c0.179,-0.113 0.336,-0.252 0.471,-0.418l0.031,-2.553Z" style="fill:#010303;fill-rule:nonzero;"/><path d="M86.982,46.165l-5.776,0l0,-0.586c0.17,-0.015 0.379,-0.04 0.627,-0.075c0.248,-0.035 0.417,-0.073 0.507,-0.113c0.185,-0.075 0.318,-0.178 0.398,-0.308c0.08,-0.13 0.12,-0.295 0.12,-0.496l0,-7.962l-3.666,9.367l-0.946,0c-0.045,-0.165 -0.157,-0.493 -0.335,-0.984c-0.177,-0.491 -0.321,-0.884 -0.431,-1.179l-2.697,-7.325l0,6.483c0,0.621 0.041,1.093 0.124,1.416c0.082,0.323 0.216,0.56 0.402,0.71c0.125,0.105 0.349,0.206 0.672,0.301c0.323,0.095 0.55,0.15 0.68,0.165l0,0.586l-4.583,0l0,-0.586c0.126,-0.015 0.33,-0.049 0.613,-0.101c0.283,-0.053 0.514,-0.144 0.694,-0.275c0.201,-0.14 0.336,-0.376 0.406,-0.709c0.07,-0.334 0.105,-0.808 0.105,-1.424l0,-5.281c0,-0.32 -0.04,-0.587 -0.12,-0.8c-0.08,-0.213 -0.2,-0.382 -0.36,-0.507c-0.201,-0.155 -0.406,-0.255 -0.616,-0.301c-0.211,-0.045 -0.424,-0.075 -0.639,-0.09l0,-0.586l4.912,0l2.627,7.024l2.215,-5.7c0.075,-0.211 0.148,-0.461 0.218,-0.752c0.07,-0.291 0.107,-0.481 0.112,-0.572l4.722,0l0,0.586c-0.16,0.01 -0.328,0.03 -0.503,0.06c-0.175,0.03 -0.343,0.071 -0.503,0.121c-0.196,0.065 -0.325,0.167 -0.387,0.308c-0.063,0.14 -0.094,0.295 -0.094,0.465l0,7.55c0,0.18 0.031,0.332 0.094,0.454c0.062,0.123 0.191,0.23 0.387,0.32c0.1,0.045 0.264,0.087 0.492,0.127c0.228,0.04 0.404,0.068 0.529,0.083l0,0.586Z" style="fill:#010303;fill-rule:nonzero;"/><path d="M96.583,46.007c-0.22,0.095 -0.48,0.183 -0.78,0.263c-0.3,0.08 -0.617,0.12 -0.952,0.12c-0.615,0 -1.067,-0.091 -1.357,-0.274c-0.29,-0.183 -0.487,-0.444 -0.592,-0.785l-0.045,0c-0.171,0.17 -0.335,0.316 -0.493,0.436c-0.158,0.12 -0.327,0.223 -0.508,0.308c-0.236,0.11 -0.463,0.193 -0.681,0.248c-0.218,0.055 -0.523,0.082 -0.914,0.082c-0.582,0 -1.079,-0.171 -1.49,-0.515c-0.411,-0.344 -0.617,-0.799 -0.617,-1.366c0,-0.325 0.045,-0.603 0.136,-0.831c0.09,-0.228 0.218,-0.43 0.383,-0.605c0.151,-0.161 0.325,-0.294 0.523,-0.399c0.198,-0.106 0.415,-0.203 0.651,-0.294c0.451,-0.165 0.993,-0.337 1.625,-0.515c0.632,-0.178 1.094,-0.337 1.385,-0.478l0,-0.721c0,-0.125 -0.01,-0.29 -0.03,-0.496c-0.02,-0.205 -0.063,-0.378 -0.128,-0.518c-0.07,-0.16 -0.181,-0.295 -0.331,-0.406c-0.15,-0.11 -0.348,-0.165 -0.593,-0.165c-0.221,0 -0.405,0.031 -0.553,0.094c-0.148,0.063 -0.267,0.126 -0.357,0.192c0.015,0.1 0.058,0.252 0.128,0.458c0.071,0.205 0.106,0.403 0.106,0.593c0,0.085 -0.023,0.192 -0.068,0.32c-0.045,0.127 -0.11,0.229 -0.196,0.304c-0.115,0.1 -0.245,0.178 -0.388,0.233c-0.143,0.055 -0.363,0.082 -0.659,0.082c-0.422,0 -0.741,-0.101 -0.957,-0.304c-0.216,-0.203 -0.324,-0.467 -0.324,-0.792c0,-0.281 0.112,-0.533 0.334,-0.755c0.223,-0.223 0.495,-0.407 0.816,-0.553c0.315,-0.15 0.678,-0.266 1.089,-0.349c0.41,-0.083 0.791,-0.124 1.142,-0.124c0.485,0 0.931,0.029 1.337,0.087c0.405,0.057 0.771,0.176 1.096,0.356c0.311,0.176 0.558,0.43 0.74,0.763c0.183,0.333 0.275,0.767 0.275,1.303c0,0.566 -0.012,1.237 -0.034,2.013c-0.023,0.777 -0.034,1.287 -0.034,1.533c0,0.225 0.034,0.403 0.101,0.533c0.068,0.13 0.172,0.228 0.312,0.293c0.085,0.04 0.219,0.064 0.402,0.072c0.183,0.007 0.349,0.011 0.5,0.011l0,0.548Zm-3.726,-3.914c-0.282,0.096 -0.561,0.205 -0.837,0.328c-0.277,0.123 -0.503,0.252 -0.679,0.388c-0.186,0.14 -0.331,0.32 -0.437,0.538c-0.105,0.219 -0.158,0.476 -0.158,0.772c0,0.392 0.089,0.675 0.267,0.851c0.179,0.176 0.399,0.263 0.66,0.263c0.276,0 0.504,-0.056 0.682,-0.169c0.179,-0.113 0.336,-0.252 0.471,-0.418l0.031,-2.553Z" style="fill:#010303;fill-rule:nonzero;"/><path d="M104.643,40.088c0,0.38 -0.118,0.715 -0.353,1.003c-0.235,0.288 -0.546,0.431 -0.932,0.431c-0.365,0 -0.674,-0.092 -0.927,-0.276c-0.253,-0.185 -0.38,-0.457 -0.38,-0.816c0,-0.174 0.013,-0.31 0.038,-0.407c0.025,-0.098 0.048,-0.189 0.068,-0.273c-0.231,0.01 -0.474,0.089 -0.729,0.238c-0.256,0.149 -0.481,0.347 -0.676,0.595l0,4.125c0,0.175 0.027,0.32 0.082,0.435c0.056,0.115 0.148,0.206 0.278,0.271c0.111,0.055 0.29,0.101 0.537,0.139c0.248,0.037 0.427,0.059 0.538,0.064l0,0.548l-5.026,0l0,-0.548c0.125,-0.01 0.252,-0.024 0.379,-0.042c0.128,-0.017 0.237,-0.041 0.327,-0.071c0.16,-0.055 0.271,-0.14 0.331,-0.256c0.06,-0.115 0.09,-0.265 0.09,-0.45l0,-4.372c0,-0.181 -0.043,-0.342 -0.128,-0.485c-0.085,-0.143 -0.188,-0.256 -0.308,-0.342c-0.09,-0.06 -0.204,-0.11 -0.342,-0.15c-0.137,-0.04 -0.289,-0.067 -0.454,-0.082l0,-0.549l3.583,-0.195l0.113,0.113l0,1.089l0.03,0c0.345,-0.401 0.712,-0.715 1.1,-0.943c0.388,-0.228 0.793,-0.342 1.214,-0.342c0.465,0 0.84,0.144 1.123,0.432c0.283,0.288 0.424,0.66 0.424,1.116Z" style="fill:#010303;fill-rule:nonzero;"/><path d="M113.725,39.261c-0.225,0.035 -0.444,0.121 -0.657,0.256c-0.213,0.135 -0.39,0.345 -0.53,0.631c-0.35,0.731 -0.695,1.468 -1.033,2.212c-0.338,0.744 -0.67,1.464 -0.995,2.16c-0.1,0.21 -0.214,0.481 -0.342,0.811c-0.128,0.331 -0.234,0.631 -0.319,0.902l-1.382,0c-0.576,-1.338 -1.068,-2.447 -1.476,-3.328c-0.409,-0.882 -0.841,-1.828 -1.296,-2.84c-0.105,-0.235 -0.269,-0.421 -0.492,-0.556c-0.223,-0.135 -0.45,-0.218 -0.68,-0.248l0,-0.548l4.627,0l0,0.548c-0.17,0.005 -0.37,0.043 -0.6,0.113c-0.231,0.07 -0.346,0.16 -0.346,0.27c0,0.031 0.01,0.076 0.03,0.136c0.02,0.06 0.045,0.127 0.075,0.203c0.161,0.38 0.403,0.928 0.727,1.644c0.324,0.716 0.667,1.469 1.028,2.26c0.25,-0.546 0.489,-1.08 0.717,-1.603c0.227,-0.523 0.508,-1.19 0.843,-2.001c0.045,-0.12 0.072,-0.218 0.079,-0.293c0.008,-0.075 0.011,-0.125 0.011,-0.15c0,-0.09 -0.043,-0.169 -0.131,-0.237c-0.088,-0.067 -0.192,-0.126 -0.313,-0.176c-0.125,-0.05 -0.246,-0.088 -0.361,-0.113c-0.116,-0.025 -0.211,-0.043 -0.286,-0.053l0,-0.548l3.102,0l0,0.548Z" style="fill:#010303;fill-rule:nonzero;"/><path d="M122.469,46.007c-0.22,0.095 -0.48,0.183 -0.78,0.263c-0.3,0.08 -0.617,0.12 -0.952,0.12c-0.614,0 -1.067,-0.091 -1.357,-0.274c-0.29,-0.183 -0.487,-0.444 -0.592,-0.785l-0.045,0c-0.17,0.17 -0.335,0.316 -0.493,0.436c-0.158,0.12 -0.327,0.223 -0.508,0.308c-0.235,0.11 -0.462,0.193 -0.68,0.248c-0.219,0.055 -0.523,0.082 -0.915,0.082c-0.582,0 -1.078,-0.171 -1.489,-0.515c-0.412,-0.344 -0.617,-0.799 -0.617,-1.366c0,-0.325 0.045,-0.603 0.135,-0.831c0.09,-0.228 0.218,-0.43 0.384,-0.605c0.15,-0.161 0.324,-0.294 0.523,-0.399c0.198,-0.106 0.415,-0.203 0.65,-0.294c0.452,-0.165 0.994,-0.337 1.626,-0.515c0.632,-0.178 1.093,-0.337 1.384,-0.478l0,-0.721c0,-0.125 -0.01,-0.29 -0.03,-0.496c-0.02,-0.205 -0.063,-0.378 -0.128,-0.518c-0.07,-0.16 -0.18,-0.295 -0.33,-0.406c-0.151,-0.11 -0.349,-0.165 -0.594,-0.165c-0.22,0 -0.405,0.031 -0.552,0.094c-0.148,0.063 -0.267,0.126 -0.357,0.192c0.015,0.1 0.058,0.252 0.128,0.458c0.07,0.205 0.105,0.403 0.105,0.593c0,0.085 -0.022,0.192 -0.068,0.32c-0.045,0.127 -0.11,0.229 -0.195,0.304c-0.116,0.1 -0.245,0.178 -0.388,0.233c-0.144,0.055 -0.363,0.082 -0.66,0.082c-0.422,0 -0.74,-0.101 -0.956,-0.304c-0.216,-0.203 -0.324,-0.467 -0.324,-0.792c0,-0.281 0.111,-0.533 0.334,-0.755c0.223,-0.223 0.494,-0.407 0.815,-0.553c0.315,-0.15 0.679,-0.266 1.089,-0.349c0.411,-0.083 0.791,-0.124 1.142,-0.124c0.486,0 0.932,0.029 1.337,0.087c0.406,0.057 0.771,0.176 1.097,0.356c0.31,0.176 0.557,0.43 0.74,0.763c0.183,0.333 0.274,0.767 0.274,1.303c0,0.566 -0.011,1.237 -0.034,2.013c-0.022,0.777 -0.034,1.287 -0.034,1.533c0,0.225 0.034,0.403 0.102,0.533c0.067,0.13 0.171,0.228 0.312,0.293c0.085,0.04 0.219,0.064 0.401,0.072c0.183,0.007 0.35,0.011 0.5,0.011l0,0.548Zm-3.726,-3.914c-0.281,0.096 -0.56,0.205 -0.837,0.328c-0.276,0.123 -0.502,0.252 -0.678,0.388c-0.186,0.14 -0.332,0.32 -0.437,0.538c-0.106,0.219 -0.159,0.476 -0.159,0.772c0,0.392 0.089,0.675 0.268,0.851c0.178,0.176 0.398,0.263 0.659,0.263c0.277,0 0.504,-0.056 0.683,-0.169c0.178,-0.113 0.335,-0.252 0.471,-0.418l0.03,-2.553Z" style="fill:#010303;fill-rule:nonzero;"/><path d="M132.963,46.165l-4.514,0l0,-0.548c0.095,-0.01 0.21,-0.023 0.345,-0.038c0.135,-0.015 0.238,-0.04 0.308,-0.075c0.105,-0.055 0.18,-0.135 0.226,-0.241c0.045,-0.105 0.067,-0.26 0.067,-0.465l0,-3.516c0,-0.511 -0.094,-0.895 -0.282,-1.153c-0.189,-0.258 -0.466,-0.387 -0.833,-0.387c-0.201,0 -0.388,0.03 -0.561,0.09c-0.173,0.06 -0.343,0.148 -0.508,0.263c-0.146,0.1 -0.263,0.203 -0.351,0.308c-0.087,0.105 -0.162,0.198 -0.222,0.278l0,4.034c0,0.175 0.025,0.322 0.075,0.44c0.05,0.117 0.133,0.206 0.248,0.266c0.08,0.045 0.181,0.085 0.301,0.12c0.12,0.035 0.238,0.061 0.353,0.076l0,0.548l-4.568,0l0,-0.548c0.126,-0.01 0.252,-0.024 0.38,-0.042c0.128,-0.017 0.236,-0.041 0.327,-0.071c0.16,-0.055 0.27,-0.14 0.33,-0.256c0.06,-0.115 0.09,-0.265 0.09,-0.45l0,-4.372c0,-0.156 -0.04,-0.308 -0.12,-0.458c-0.08,-0.151 -0.185,-0.273 -0.315,-0.369c-0.091,-0.06 -0.204,-0.11 -0.342,-0.15c-0.138,-0.04 -0.289,-0.067 -0.455,-0.082l0,-0.549l3.584,-0.195l0.112,0.113l0,1.089l0.03,0c0.14,-0.125 0.311,-0.276 0.511,-0.451c0.2,-0.175 0.386,-0.318 0.556,-0.428c0.185,-0.12 0.428,-0.223 0.729,-0.308c0.3,-0.085 0.621,-0.128 0.961,-0.128c0.816,0 1.429,0.232 1.837,0.695c0.408,0.463 0.612,1.078 0.612,1.844l0,3.681c0,0.185 0.028,0.333 0.083,0.443c0.055,0.111 0.157,0.198 0.308,0.263c0.08,0.035 0.179,0.07 0.296,0.105c0.118,0.035 0.252,0.061 0.402,0.076l0,0.548Z" style="fill:#010303;fill-rule:nonzero;"/><path d="M141.332,39.599c0.37,0.346 0.653,0.759 0.849,1.24c0.195,0.481 0.293,1.002 0.293,1.562c0,0.556 -0.097,1.081 -0.29,1.574c-0.192,0.493 -0.474,0.915 -0.845,1.266c-0.395,0.376 -0.867,0.664 -1.416,0.864c-0.548,0.2 -1.175,0.3 -1.882,0.3c-0.611,0 -1.173,-0.087 -1.686,-0.263c-0.513,-0.175 -0.968,-0.438 -1.363,-0.788c-0.381,-0.336 -0.681,-0.75 -0.902,-1.244c-0.22,-0.493 -0.33,-1.045 -0.33,-1.656c0,-0.601 0.096,-1.136 0.289,-1.604c0.193,-0.468 0.482,-0.885 0.867,-1.251c0.371,-0.35 0.828,-0.622 1.371,-0.815c0.544,-0.192 1.151,-0.289 1.822,-0.289c0.701,0 1.318,0.097 1.852,0.289c0.533,0.193 0.99,0.465 1.371,0.815Zm-1.923,5.206c0.11,-0.28 0.191,-0.621 0.244,-1.021c0.052,-0.401 0.079,-0.867 0.079,-1.398c0,-0.35 -0.025,-0.751 -0.075,-1.202c-0.051,-0.45 -0.126,-0.806 -0.226,-1.066c-0.12,-0.316 -0.287,-0.564 -0.499,-0.744c-0.213,-0.18 -0.482,-0.27 -0.808,-0.27c-0.355,0 -0.64,0.097 -0.853,0.293c-0.212,0.195 -0.376,0.448 -0.492,0.758c-0.105,0.286 -0.177,0.62 -0.217,1.003c-0.04,0.383 -0.06,0.783 -0.06,1.198c0,0.546 0.017,0.998 0.052,1.356c0.035,0.358 0.12,0.718 0.256,1.078c0.115,0.311 0.28,0.556 0.495,0.736c0.216,0.181 0.489,0.271 0.819,0.271c0.301,0 0.558,-0.084 0.774,-0.252c0.215,-0.168 0.385,-0.414 0.511,-0.74Z" style="fill:#010303;fill-rule:nonzero;"/><path d="M152.006,39.261c-0.225,0.035 -0.444,0.121 -0.657,0.256c-0.213,0.135 -0.389,0.345 -0.53,0.631c-0.35,0.731 -0.694,1.468 -1.032,2.212c-0.339,0.744 -0.67,1.464 -0.996,2.16c-0.1,0.21 -0.214,0.481 -0.342,0.811c-0.127,0.331 -0.234,0.631 -0.319,0.902l-1.382,0c-0.576,-1.338 -1.068,-2.447 -1.476,-3.328c-0.408,-0.882 -0.84,-1.828 -1.296,-2.84c-0.105,-0.235 -0.269,-0.421 -0.492,-0.556c-0.223,-0.135 -0.45,-0.218 -0.68,-0.248l0,-0.548l4.628,0l0,0.548c-0.171,0.005 -0.371,0.043 -0.601,0.113c-0.23,0.07 -0.345,0.16 -0.345,0.27c0,0.031 0.01,0.076 0.03,0.136c0.02,0.06 0.045,0.127 0.075,0.203c0.16,0.38 0.403,0.928 0.727,1.644c0.324,0.716 0.666,1.469 1.028,2.26c0.25,-0.546 0.488,-1.08 0.716,-1.603c0.227,-0.523 0.509,-1.19 0.844,-2.001c0.045,-0.12 0.071,-0.218 0.078,-0.293c0.008,-0.075 0.012,-0.125 0.012,-0.15c0,-0.09 -0.044,-0.169 -0.132,-0.237c-0.088,-0.067 -0.192,-0.126 -0.312,-0.176c-0.126,-0.05 -0.246,-0.088 -0.362,-0.113c-0.115,-0.025 -0.211,-0.043 -0.286,-0.053l0,-0.548l3.102,0l0,0.548Z" style="fill:#010303;fill-rule:nonzero;"/><path d="M160.75,46.007c-0.22,0.095 -0.479,0.183 -0.779,0.263c-0.3,0.08 -0.618,0.12 -0.952,0.12c-0.615,0 -1.067,-0.091 -1.357,-0.274c-0.29,-0.183 -0.488,-0.444 -0.593,-0.785l-0.045,0c-0.17,0.17 -0.334,0.316 -0.492,0.436c-0.158,0.12 -0.328,0.223 -0.508,0.308c-0.236,0.11 -0.463,0.193 -0.681,0.248c-0.218,0.055 -0.523,0.082 -0.914,0.082c-0.582,0 -1.079,-0.171 -1.49,-0.515c-0.412,-0.344 -0.617,-0.799 -0.617,-1.366c0,-0.325 0.045,-0.603 0.135,-0.831c0.091,-0.228 0.218,-0.43 0.384,-0.605c0.15,-0.161 0.325,-0.294 0.523,-0.399c0.198,-0.106 0.415,-0.203 0.651,-0.294c0.451,-0.165 0.993,-0.337 1.625,-0.515c0.632,-0.178 1.093,-0.337 1.384,-0.478l0,-0.721c0,-0.125 -0.01,-0.29 -0.03,-0.496c-0.02,-0.205 -0.062,-0.378 -0.127,-0.518c-0.071,-0.16 -0.181,-0.295 -0.331,-0.406c-0.15,-0.11 -0.348,-0.165 -0.594,-0.165c-0.22,0 -0.404,0.031 -0.552,0.094c-0.148,0.063 -0.267,0.126 -0.357,0.192c0.015,0.1 0.058,0.252 0.128,0.458c0.07,0.205 0.106,0.403 0.106,0.593c0,0.085 -0.023,0.192 -0.068,0.32c-0.045,0.127 -0.111,0.229 -0.196,0.304c-0.116,0.1 -0.245,0.178 -0.388,0.233c-0.143,0.055 -0.363,0.082 -0.659,0.082c-0.422,0 -0.741,-0.101 -0.957,-0.304c-0.216,-0.203 -0.324,-0.467 -0.324,-0.792c0,-0.281 0.111,-0.533 0.334,-0.755c0.223,-0.223 0.495,-0.407 0.815,-0.553c0.316,-0.15 0.679,-0.266 1.089,-0.349c0.411,-0.083 0.792,-0.124 1.142,-0.124c0.486,0 0.932,0.029 1.337,0.087c0.406,0.057 0.772,0.176 1.097,0.356c0.311,0.176 0.557,0.43 0.74,0.763c0.183,0.333 0.274,0.767 0.274,1.303c0,0.566 -0.011,1.237 -0.033,2.013c-0.023,0.777 -0.034,1.287 -0.034,1.533c0,0.225 0.034,0.403 0.101,0.533c0.068,0.13 0.172,0.228 0.312,0.293c0.085,0.04 0.219,0.064 0.402,0.072c0.183,0.007 0.349,0.011 0.499,0.011l0,0.548Zm-3.726,-3.914c-0.281,0.096 -0.56,0.205 -0.836,0.328c-0.277,0.123 -0.503,0.252 -0.679,0.388c-0.186,0.14 -0.332,0.32 -0.437,0.538c-0.106,0.219 -0.159,0.476 -0.159,0.772c0,0.392 0.09,0.675 0.268,0.851c0.179,0.176 0.398,0.263 0.66,0.263c0.276,0 0.504,-0.056 0.682,-0.169c0.178,-0.113 0.336,-0.252 0.471,-0.418l0.03,-2.553Zm1.353,-6.896c0,0.226 -0.052,0.407 -0.154,0.545c-0.103,0.138 -0.267,0.279 -0.493,0.424c-0.245,0.161 -0.633,0.387 -1.164,0.68c-0.531,0.293 -1.132,0.643 -1.803,1.048l-0.315,-0.285c0.44,-0.586 0.781,-1.053 1.021,-1.401c0.241,-0.348 0.449,-0.645 0.624,-0.89c0.215,-0.306 0.421,-0.513 0.616,-0.62c0.195,-0.108 0.438,-0.162 0.729,-0.162c0.24,0 0.456,0.065 0.649,0.196c0.193,0.13 0.29,0.285 0.29,0.465Z" style="fill:#010303;fill-rule:nonzero;"/><path d="M17.966,1.665c2.44,0.956 3.749,3.439 2.923,5.547c-0.825,2.108 -3.473,3.041 -5.913,2.085c-2.44,-0.957 -3.749,-3.44 -2.923,-5.547c0.825,-2.108 3.473,-3.041 5.913,-2.085m-3.731,-1.33c-2.08,0.848 -3.827,2.242 -3.697,5.164c0.126,2.824 2.145,4.146 2.282,4.232c3.408,1.893 5.935,0.776 7.931,0.193c3.58,-1.046 4.83,-1.843 9.097,-1.168c1.37,0.217 2.946,0.689 4.543,1.246c1.37,-0.698 2.629,-1.33 3.643,-1.696c-5.561,-0.197 -11.624,-1.803 -13.884,-3.403c-1.454,-1.029 -3.029,-2.506 -4.741,-3.849c-1.633,-1.279 -3.608,-1.227 -5.174,-0.719" style="fill:#eed0a0;fill-rule:nonzero;"/><path d="M40.803,11.876c-0.549,-0.091 -0.976,-0.556 -0.998,-1.134c-0.022,-0.577 0.37,-1.074 0.91,-1.206l0.088,2.34Zm1.39,-1.223c0.022,0.577 -0.37,1.074 -0.91,1.205l-0.087,-2.34c0.548,0.091 0.976,0.558 0.997,1.135m-26.981,9.582c-2.466,0.889 -5.087,-0.116 -5.855,-2.246c-0.768,-2.129 0.608,-4.576 3.074,-5.465c2.465,-0.889 5.086,0.116 5.854,2.246c0.768,2.129 -0.609,4.576 -3.073,5.465m25.186,-12.118c-2.695,0.42 -8.831,4.795 -13.115,5.354c-4.285,0.558 -5.512,-0.273 -9.063,-1.416c-3.55,-1.143 -8.762,-4.058 -18.22,11.683l0.731,0.372c0,0 1.772,-3.814 4.104,-5.415c2.332,-1.603 3.264,-0.123 4.108,1.122c0.843,1.244 4.746,3.25 7.694,1.068c2.948,-2.184 3.313,-5.227 7.924,-5.558c2.27,-0.003 1.949,0.927 3.527,0.488c1.578,-0.44 1.516,-2.112 6.125,-2.523c4.609,-0.412 10.598,-0.157 15.522,-0.66c4.925,-0.502 20.976,-2.776 22.302,-3.145c0,0 0.406,-0.493 -1.454,-0.663c-1.861,-0.17 -27.49,-1.126 -30.185,-0.707" style="fill:#eed0a0;fill-rule:nonzero;"/></g></svg>